# xmcd CD database file
#
# Track frame offsets:
#	150
#	10848
#	22196
#	35703
#	49213
#	61841
#	75781
#	89368
#	101556
#	113133
#	124763
#	133576
#	142783
#	152243
#	162541
#	174691
#	188906
#	199931
#	209861
#	223366
#	235061
#
# Disc length: 3288 seconds
#
# Revision: 1
# Processed by: cddbd v1.4PL0 Copyright (c) Steve Scherf et al.
# Submitted via: CDex 1.50
#
DISCID=320cd615
DTITLE=Various Artist - Elko Blues (Vol 2)
DYEAR=1900
DGENRE=Vintage R&B
TTITLE0=Jesse Thomas - Another Fool Like Me
TTITLE1=Mac Willis - Howling Woman
TTITLE2=Mac Willis - Pretty Woman
TTITLE3=Big Son Tillis and D.C. Bender - Zetela
TTITLE4=Big Son Tillis, "Lillian" and D.C. Bender - Ten Long Years
TTITLE5=Big Son Tillis and D.C. Bender - Rocks Is My Pillow
TTITLE6=Big Son Tillis and D.C. Bender - I Got A Letter
TTITLE7=Big Son Tillis and D.C. Bender - Cold Blues
TTITLE8=Big Son Tillis and D.C. Bender - I'm Going Upstairs
TTITLE9=Clifton Chenier - Nobody Loves Me
TTITLE10=Clifton Chenier - Rockin' Hop
TTITLE11=Little Willie Egan - It's A Shame
TTITLE12=Little Willie Egan - Willie's Boogie
TTITLE13=Beatrice Hill with J.D. Nicholson and His Jiving Five - Hard Luck Blues
TTITLE14=Beatrice Hill with J.D. Nicholson and His Jiving Five - Lonesome Road
TTITLE15=George "Harmonica" Smith - West Helena Blues
TTITLE16=George "Harmonica" Smith - All Last Night
TTITLE17=George "Harmonica" Smith - Go Ahead On
TTITLE18=Hollywood Flames - Strange Old Feeling
TTITLE19=James Hill with J.D. Nicholson and His Jiving Five - I Ain't Gonna Be Your Dog No More
TTITLE20=Jesse Belvin with The Cliques - Come Back Baby
EXTD=
EXTT0=
EXTT1=
EXTT2=
EXTT3=
EXTT4=
EXTT5=
EXTT6=
EXTT7=
EXTT8=
EXTT9=
EXTT10=
EXTT11=
EXTT12=
EXTT13=
EXTT14=
EXTT15=
EXTT16=
EXTT17=
EXTT18=
EXTT19=
EXTT20=
PLAYORDER=
